<svg xmlns="http://www.w3.org/2000/svg" width="246" height="75" viewBox="0 0 246 75">
    <g fill="none" fill-rule="evenodd">
        <g fill-rule="nonzero">
            <path fill="#0F4996" d="M64.169 22.059c1.883.044 3.289.322 4.218.834.93.512 1.663 1.266 2.201 2.26.44.82.743 1.727.908 2.722.165.995.137 2.13-.083 3.402-.28 1.537-.877 3.048-1.788 4.533-.91 1.485-2.167 2.535-3.769 3.15 1.137.6 1.868 1.452 2.192 2.557.324 1.104.284 2.79-.12 5.059l-.385 2.173c-.256 1.478-.385 2.48-.385 3.007 0 .834.233 1.449.697 1.844l-.128.812h-6.218a26.665 26.665 0 0 1-.073-1.734c.012-.907.098-1.837.257-2.788l.495-3.007c.342-2.063.272-3.438-.21-4.126-.484-.688-1.557-1.032-3.22-1.032h-5.832l-2.238 12.687h-5.52l5.74-32.353h13.26zm-2.143 5.882h-6.518l-1.529 8.824h6.354c1.262 0 2.24-.179 2.931-.535 1.226-.624 2.003-1.857 2.33-3.699.34-1.99.03-3.327-.928-4.01-.546-.387-1.426-.58-2.64-.58zm16.785-5.882h19.225l-1.012 5.692H83.428l-1.324 7.451h11.903l-.993 5.627H81.11L78.7 54.412h-5.63l5.74-32.353zm23.564 32.353h-5.807l5.94-32.353h5.808l-5.94 32.353zm23.41-32.353c1.67.03 3.028.263 4.072.702 1.77.746 3.065 2.115 3.889 4.105.663 1.61.998 3.35 1.004 5.224a30.713 30.713 0 0 1-.433 5.355c-.774 4.302-2.15 7.946-4.128 10.93-2.678 4.025-6.069 6.037-10.172 6.037h-11.701l5.768-32.353h11.701zm-2.224 5.882h-5.453L114.19 48.53h5.454c2.79 0 5.03-1.533 6.72-4.6.922-1.685 1.6-3.69 2.036-6.015.615-3.21.634-5.675.058-7.394-.576-1.72-2.208-2.579-4.897-2.579z"/>
            <path fill="#DF601F" d="M162.765 47.329h-3.512v6.577h-5.976v-6.577h-12.295v-5.25l11.417-18.55h6.854v19.099h3.512v4.7zm-9.488-4.701V29.432l-7.775 13.196h7.775zm19.877-11.7v13.85c0 1.307.157 2.29.471 2.951.557 1.167 1.65 1.75 3.277 1.75 2.085 0 3.513-.83 4.284-2.487.4-.9.6-2.087.6-3.563v-12.5h6.19v22.977h-5.933V50.66c-.057.07-.2.28-.428.632-.229.351-.5.66-.814.927-.957.844-1.882 1.42-2.774 1.729-.893.31-1.939.464-3.138.464-3.456 0-5.783-1.223-6.983-3.668-.671-1.35-1.007-3.338-1.007-5.966v-13.85h6.255z"/>
        </g>
        <path fill="#000" fill-rule="nonzero" d="M191.28 18.34c-1.22 0-2.262.435-3.126 1.304-.86.864-1.29 1.909-1.29 3.133 0 1.233.428 2.284 1.283 3.153.86.869 1.904 1.303 3.132 1.303 1.229 0 2.273-.434 3.133-1.303.86-.869 1.289-1.92 1.289-3.153 0-1.224-.43-2.269-1.29-3.133-.864-.869-1.908-1.303-3.132-1.303zm5.15 4.437c0 1.424-.502 2.641-1.507 3.65-1.004 1.01-2.219 1.514-3.644 1.514-1.425 0-2.637-.504-3.637-1.513-.995-1.005-1.492-2.222-1.492-3.651 0-1.416.502-2.626 1.506-3.63 1-1 2.208-1.5 3.623-1.5 1.425 0 2.64.5 3.644 1.5 1.005 1 1.507 2.21 1.507 3.63zm-3.805-1.122c0-.41-.125-.686-.375-.827-.25-.14-.65-.21-1.202-.21h-.848v2.046h.897c.42 0 .736-.042.946-.126.388-.154.582-.448.582-.883zm-1.444-1.716c.701 0 1.215.067 1.542.203.584.243.876.72.876 1.43 0 .504-.185.875-.554 1.114-.196.126-.47.217-.82.273.444.07.769.254.974.553.206.3.309.591.309.876v.414c0 .13.004.27.014.42.01.15.025.248.049.295l.035.07h-.932l-.014-.056a1.37 1.37 0 0 1-.014-.063l-.021-.183v-.448c0-.654-.178-1.086-.533-1.297-.21-.121-.58-.182-1.107-.182h-.785v2.229h-.995v-5.648h1.976z"/>
        <path fill="#2A7FBE" fill-rule="nonzero" d="M15.43 65.809H243.79v-2.206H15.429zM106.487 13.61l121.89-.75-.013-2.205-121.89.749zM0 12.858l86.645.754.02-2.205-86.646-.755z"/>
        <path fill="#DF601F" d="M96.954 5.882l-9.198 9.69h17.403z"/>
        <path fill="#2A7FBE" fill-rule="nonzero" d="M53.612 74.632h102.065v-2.206H53.612zM73.07 2.206l90.317.753.018-2.205L73.09 0z"/>
    </g>
</svg>
